<svg width="17" height="17" viewBox="0 0 17 17" fill="none" xmlns="http://www.w3.org/2000/svg">
<path d="M8.354 8.67716V8.96188L8.59887 9.10717L11.3511 10.7402L11.3418 10.7555L8.2915 8.92532V5.45841H8.354V8.67716ZM1.9165 8.50008C1.9165 4.86557 4.85955 1.91675 8.49275 1.91675C12.134 1.91675 15.0832 4.86655 15.0832 8.50008C15.0832 12.1336 12.134 15.0834 8.49275 15.0834C4.85955 15.0834 1.9165 12.1346 1.9165 8.50008ZM2.33317 8.50008C2.33317 11.9071 5.09286 14.6667 8.49984 14.6667C11.9068 14.6667 14.6665 11.9071 14.6665 8.50008C14.6665 5.09311 11.9068 2.33341 8.49984 2.33341C5.09286 2.33341 2.33317 5.09311 2.33317 8.50008Z" stroke="#9C98A6"/>
</svg>
